{"accessors":[{"bufferView":0,"componentType":5126,"count":480,"min":[-0.9999999403953552,-1.0,-1.0],"max":[1.0,1.0,1.0],"type":"VEC3","name":"Sphere_vertices#0_POSITION"},{"bufferView":0,"byteOffset":12,"componentType":5120,"count":480,"type":"VEC4","name":"Sphere_vertices#0_TANGENT"},{"bufferView":0,"byteOffset":16,"componentType":5120,"count":480,"type":"VEC4","name":"Sphere_vertices#0_NORMAL"},{"bufferView":0,"byteOffset":20,"componentType":5122,"count":480,"type":"VEC2","name":"Sphere_vertices#0_TEXCOORD_0"},{"bufferView":0,"byteOffset":24,"componentType":5122,"count":480,"type":"VEC2","name":"Sphere_vertices#0_TEXCOORD_1"},{"bufferView":0,"byteOffset":28,"componentType":5123,"count":480,"type":"VEC4","name":"Sphere_vertices#0_COLOR_0"},{"bufferView":1,"componentType":5123,"count":672,"type":"SCALAR","name":"Sphere_indices#0"}],"asset":{"generator":"Khronos glTF Blender I/O v3.3.27 and Asobo Studio MSFS Blender I/O v1.3.2","version":"2.0","extensions":{"ASOBO_asset_optimized":{"BoundingBoxMax":[1.0,1.0,1.0],"BoundingBoxMin":[-0.9999999403953552,-1.0,-1.0],"MajorVersion":4,"MinorVersion":4,"UseCheckerboardMaterialForMissingTextures":true,"UseOnlyFilenameForImageURI":true},"ASOBO_normal_map_convention":{"tangent_space_convention":"DirectX"}}},"bufferViews":[{"buffer":0,"byteLength":17280,"byteStride":36,"target":34962,"name":"BufferViewVertexND"},{"buffer":0,"byteLength":1344,"byteOffset":17280,"target":34963,"name":"BufferViewIndex"}],"materials":[{"name":"MSFS Material","extensions":{"ASOBO_material_invisible":{}}}],"meshes":[{"primitives":[{"attributes":{"COLOR_0":5,"NORMAL":2,"POSITION":0,"TANGENT":1,"TEXCOORD_0":3,"TEXCOORD_1":4},"indices":6,"material":0,"mode":4,"extras":{"ASOBO_primitive":{"PrimitiveCount":224,"VertexType":"VTX","VertexVersion":2}}}],"name":"Sphere"}],"nodes":[{"mesh":0,"extensions":{"ASOBO_unique_id":{"id":"InvisibleAircraft"}},"name":"InvisibleAircraft"}],"scene":0,"scenes":[{"nodes":[0],"name":"Scene"}],"extensionsUsed":["ASOBO_normal_map_convention","ASOBO_unique_id","ASOBO_material_invisible","ASOBO_material_shadow_options","ASOBO_asset_optimized"],"buffers":[{"byteLength":18624,"uri":"InvisibleAircraft.bin"}]}
